<mxfile host="Electron" modified="2023-11-30T08:15:10.612Z" agent="Mozilla/5.0 (Windows NT 10.0; Win64; x64) AppleWebKit/537.36 (KHTML, like Gecko) draw.io/21.6.8 Chrome/114.0.5735.289 Electron/25.5.0 Safari/537.36" etag="__0GQvl81fH6evBFswPs" version="21.6.8" type="device">
  <diagram name="第 1 页" id="MeoKGd0Zv4ejxoMvi7Jf">
    <mxGraphModel dx="1434" dy="844" grid="1" gridSize="10" guides="1" tooltips="1" connect="1" arrows="1" fold="1" page="1" pageScale="1" pageWidth="827" pageHeight="1169" math="0" shadow="0">
      <root>
        <mxCell id="0" />
        <mxCell id="1" parent="0" />
        <mxCell id="JK85x8sn9wjMa076Amf1-25" value="" style="edgeStyle=orthogonalEdgeStyle;rounded=0;orthogonalLoop=1;jettySize=auto;html=1;" parent="1" source="JK85x8sn9wjMa076Amf1-1" target="JK85x8sn9wjMa076Amf1-21" edge="1">
          <mxGeometry relative="1" as="geometry" />
        </mxCell>
        <mxCell id="JK85x8sn9wjMa076Amf1-1" value="NIC" style="rounded=0;whiteSpace=wrap;html=1;" parent="1" vertex="1">
          <mxGeometry x="220" y="100" width="50" height="60" as="geometry" />
        </mxCell>
        <mxCell id="JK85x8sn9wjMa076Amf1-2" value="" style="endArrow=classic;html=1;rounded=0;" parent="1" edge="1">
          <mxGeometry width="50" height="50" relative="1" as="geometry">
            <mxPoint x="140" y="120" as="sourcePoint" />
            <mxPoint x="210" y="120" as="targetPoint" />
          </mxGeometry>
        </mxCell>
        <mxCell id="JK85x8sn9wjMa076Amf1-3" value="网卡写数据到内存" style="text;strokeColor=none;align=center;fillColor=none;html=1;verticalAlign=middle;whiteSpace=wrap;rounded=0;fontStyle=1" parent="1" vertex="1">
          <mxGeometry x="130" y="40" width="120" height="30" as="geometry" />
        </mxCell>
        <mxCell id="JK85x8sn9wjMa076Amf1-4" value="1.DATA" style="text;strokeColor=none;align=center;fillColor=none;html=1;verticalAlign=middle;whiteSpace=wrap;rounded=0;" parent="1" vertex="1">
          <mxGeometry x="150" y="90" width="60" height="30" as="geometry" />
        </mxCell>
        <mxCell id="JK85x8sn9wjMa076Amf1-10" value="" style="edgeStyle=orthogonalEdgeStyle;rounded=0;orthogonalLoop=1;jettySize=auto;html=1;" parent="1" source="JK85x8sn9wjMa076Amf1-6" target="JK85x8sn9wjMa076Amf1-9" edge="1">
          <mxGeometry relative="1" as="geometry" />
        </mxCell>
        <mxCell id="JK85x8sn9wjMa076Amf1-6" value="CPU" style="rounded=0;whiteSpace=wrap;html=1;" parent="1" vertex="1">
          <mxGeometry x="220" y="240" width="50" height="60" as="geometry" />
        </mxCell>
        <mxCell id="JK85x8sn9wjMa076Amf1-7" value="" style="endArrow=classic;html=1;rounded=0;" parent="1" edge="1">
          <mxGeometry width="50" height="50" relative="1" as="geometry">
            <mxPoint x="244.5" y="160" as="sourcePoint" />
            <mxPoint x="244.5" y="240" as="targetPoint" />
          </mxGeometry>
        </mxCell>
        <mxCell id="JK85x8sn9wjMa076Amf1-8" value="3.抛出硬中断" style="text;strokeColor=none;align=center;fillColor=none;html=1;verticalAlign=middle;whiteSpace=wrap;rounded=0;" parent="1" vertex="1">
          <mxGeometry x="160" y="190" width="90" height="30" as="geometry" />
        </mxCell>
        <mxCell id="JK85x8sn9wjMa076Amf1-14" value="" style="rounded=0;orthogonalLoop=1;jettySize=auto;html=1;entryX=1;entryY=1;entryDx=0;entryDy=0;" parent="1" source="JK85x8sn9wjMa076Amf1-9" target="JK85x8sn9wjMa076Amf1-1" edge="1">
          <mxGeometry relative="1" as="geometry">
            <mxPoint x="271.25" y="140" as="targetPoint" />
          </mxGeometry>
        </mxCell>
        <mxCell id="JK85x8sn9wjMa076Amf1-17" value="" style="edgeStyle=orthogonalEdgeStyle;rounded=0;orthogonalLoop=1;jettySize=auto;html=1;" parent="1" source="JK85x8sn9wjMa076Amf1-9" edge="1">
          <mxGeometry relative="1" as="geometry">
            <mxPoint x="385" y="360" as="targetPoint" />
          </mxGeometry>
        </mxCell>
        <mxCell id="JK85x8sn9wjMa076Amf1-9" value="NIC&lt;br&gt;Driver" style="rounded=0;whiteSpace=wrap;html=1;" parent="1" vertex="1">
          <mxGeometry x="360" y="240" width="50" height="60" as="geometry" />
        </mxCell>
        <mxCell id="JK85x8sn9wjMa076Amf1-11" value="4.调用硬中断处理程序（网卡驱动程序）" style="text;strokeColor=none;align=center;fillColor=none;html=1;verticalAlign=middle;whiteSpace=wrap;rounded=0;" parent="1" vertex="1">
          <mxGeometry x="280" y="240" width="60" height="30" as="geometry" />
        </mxCell>
        <mxCell id="JK85x8sn9wjMa076Amf1-15" value="5.禁用硬中断" style="text;strokeColor=none;align=center;fillColor=none;html=1;verticalAlign=middle;whiteSpace=wrap;rounded=0;" parent="1" vertex="1">
          <mxGeometry x="290" y="180" width="120" height="30" as="geometry" />
        </mxCell>
        <mxCell id="JK85x8sn9wjMa076Amf1-18" value="6.抛出软中断" style="text;strokeColor=none;align=center;fillColor=none;html=1;verticalAlign=middle;whiteSpace=wrap;rounded=0;" parent="1" vertex="1">
          <mxGeometry x="370" y="310" width="110" height="30" as="geometry" />
        </mxCell>
        <mxCell id="JK85x8sn9wjMa076Amf1-21" value="Memory" style="rounded=0;whiteSpace=wrap;html=1;" parent="1" vertex="1">
          <mxGeometry x="360" y="100" width="50" height="60" as="geometry" />
        </mxCell>
        <mxCell id="JK85x8sn9wjMa076Amf1-26" value="2.DMA写内存" style="text;strokeColor=none;align=center;fillColor=none;html=1;verticalAlign=middle;whiteSpace=wrap;rounded=0;" parent="1" vertex="1">
          <mxGeometry x="270" y="110" width="90" height="30" as="geometry" />
        </mxCell>
        <mxCell id="rnfP3OfMHcst0KFM3fF8-1" value="内核网络模块处理" style="text;strokeColor=none;align=center;fillColor=none;html=1;verticalAlign=middle;whiteSpace=wrap;rounded=0;fontStyle=1" parent="1" vertex="1">
          <mxGeometry x="120" y="380" width="120" height="30" as="geometry" />
        </mxCell>
        <mxCell id="rnfP3OfMHcst0KFM3fF8-2" value="NIC&lt;br&gt;Driver" style="rounded=0;whiteSpace=wrap;html=1;" parent="1" vertex="1">
          <mxGeometry x="220" y="440" width="50" height="60" as="geometry" />
        </mxCell>
        <mxCell id="rnfP3OfMHcst0KFM3fF8-3" value="" style="endArrow=classic;html=1;rounded=0;" parent="1" edge="1">
          <mxGeometry width="50" height="50" relative="1" as="geometry">
            <mxPoint x="240" y="500" as="sourcePoint" />
            <mxPoint x="240" y="560" as="targetPoint" />
          </mxGeometry>
        </mxCell>
        <mxCell id="rnfP3OfMHcst0KFM3fF8-4" value="6.抛出软中断" style="text;strokeColor=none;align=center;fillColor=none;html=1;verticalAlign=middle;whiteSpace=wrap;rounded=0;" parent="1" vertex="1">
          <mxGeometry x="240" y="510" width="80" height="30" as="geometry" />
        </mxCell>
        <mxCell id="rnfP3OfMHcst0KFM3fF8-7" value="" style="edgeStyle=orthogonalEdgeStyle;rounded=0;orthogonalLoop=1;jettySize=auto;html=1;" parent="1" source="rnfP3OfMHcst0KFM3fF8-5" target="rnfP3OfMHcst0KFM3fF8-6" edge="1">
          <mxGeometry relative="1" as="geometry" />
        </mxCell>
        <mxCell id="rnfP3OfMHcst0KFM3fF8-5" value="ksoftirqd" style="rounded=0;whiteSpace=wrap;html=1;" parent="1" vertex="1">
          <mxGeometry x="220" y="560" width="50" height="60" as="geometry" />
        </mxCell>
        <mxCell id="rnfP3OfMHcst0KFM3fF8-10" value="" style="edgeStyle=orthogonalEdgeStyle;rounded=0;orthogonalLoop=1;jettySize=auto;html=1;entryX=0;entryY=0.5;entryDx=0;entryDy=0;" parent="1" source="rnfP3OfMHcst0KFM3fF8-6" target="rnfP3OfMHcst0KFM3fF8-2" edge="1">
          <mxGeometry relative="1" as="geometry">
            <mxPoint x="160" y="500" as="targetPoint" />
            <Array as="points">
              <mxPoint x="85" y="470" />
            </Array>
          </mxGeometry>
        </mxCell>
        <mxCell id="rnfP3OfMHcst0KFM3fF8-6" value="net_rx_action" style="rounded=0;whiteSpace=wrap;html=1;" parent="1" vertex="1">
          <mxGeometry x="40" y="560" width="90" height="60" as="geometry" />
        </mxCell>
        <mxCell id="rnfP3OfMHcst0KFM3fF8-8" value="7.内核进程调用相应的网络处理模块" style="text;strokeColor=none;align=center;fillColor=none;html=1;verticalAlign=middle;whiteSpace=wrap;rounded=0;" parent="1" vertex="1">
          <mxGeometry x="150" y="570" width="60" height="30" as="geometry" />
        </mxCell>
        <mxCell id="rnfP3OfMHcst0KFM3fF8-11" value="8.调用网卡驱动的pool函数读取数据" style="text;strokeColor=none;align=center;fillColor=none;html=1;verticalAlign=middle;whiteSpace=wrap;rounded=0;" parent="1" vertex="1">
          <mxGeometry x="90" y="500" width="60" height="30" as="geometry" />
        </mxCell>
        <mxCell id="rnfP3OfMHcst0KFM3fF8-13" value="" style="edgeStyle=orthogonalEdgeStyle;rounded=0;orthogonalLoop=1;jettySize=auto;html=1;" parent="1" source="rnfP3OfMHcst0KFM3fF8-12" target="rnfP3OfMHcst0KFM3fF8-2" edge="1">
          <mxGeometry relative="1" as="geometry" />
        </mxCell>
        <mxCell id="rnfP3OfMHcst0KFM3fF8-12" value="Memory" style="rounded=0;whiteSpace=wrap;html=1;" parent="1" vertex="1">
          <mxGeometry x="414" y="440" width="50" height="60" as="geometry" />
        </mxCell>
        <mxCell id="rnfP3OfMHcst0KFM3fF8-14" value="9.网卡驱动读取内存存放的数据，并转化成内核模块能够处理的SKB格式" style="text;strokeColor=none;align=center;fillColor=none;html=1;verticalAlign=middle;whiteSpace=wrap;rounded=0;" parent="1" vertex="1">
          <mxGeometry x="300" y="450" width="100" height="30" as="geometry" />
        </mxCell>
        <mxCell id="rnfP3OfMHcst0KFM3fF8-20" value="" style="edgeStyle=orthogonalEdgeStyle;rounded=0;orthogonalLoop=1;jettySize=auto;html=1;" parent="1" source="rnfP3OfMHcst0KFM3fF8-15" target="rnfP3OfMHcst0KFM3fF8-19" edge="1">
          <mxGeometry relative="1" as="geometry" />
        </mxCell>
        <mxCell id="rnfP3OfMHcst0KFM3fF8-29" value="" style="edgeStyle=orthogonalEdgeStyle;rounded=0;orthogonalLoop=1;jettySize=auto;html=1;" parent="1" source="rnfP3OfMHcst0KFM3fF8-15" target="rnfP3OfMHcst0KFM3fF8-28" edge="1">
          <mxGeometry relative="1" as="geometry" />
        </mxCell>
        <mxCell id="rnfP3OfMHcst0KFM3fF8-15" value="napi_gro_receive" style="rounded=0;whiteSpace=wrap;html=1;" parent="1" vertex="1">
          <mxGeometry x="300" y="560" width="120" height="60" as="geometry" />
        </mxCell>
        <mxCell id="rnfP3OfMHcst0KFM3fF8-16" value="" style="endArrow=classic;html=1;rounded=0;entryX=0.5;entryY=0;entryDx=0;entryDy=0;" parent="1" target="rnfP3OfMHcst0KFM3fF8-15" edge="1">
          <mxGeometry width="50" height="50" relative="1" as="geometry">
            <mxPoint x="270" y="495" as="sourcePoint" />
            <mxPoint x="330" y="535" as="targetPoint" />
          </mxGeometry>
        </mxCell>
        <mxCell id="rnfP3OfMHcst0KFM3fF8-18" value="10.网卡驱动调用napi_gro_receive内核函数，napi_gro_receive会将数据包进行合并，提高协议栈处理效率" style="text;strokeColor=none;align=center;fillColor=none;html=1;verticalAlign=middle;whiteSpace=wrap;rounded=0;" parent="1" vertex="1">
          <mxGeometry x="320" y="520" width="240" height="30" as="geometry" />
        </mxCell>
        <mxCell id="rnfP3OfMHcst0KFM3fF8-23" value="" style="edgeStyle=orthogonalEdgeStyle;rounded=0;orthogonalLoop=1;jettySize=auto;html=1;" parent="1" source="rnfP3OfMHcst0KFM3fF8-19" target="rnfP3OfMHcst0KFM3fF8-22" edge="1">
          <mxGeometry relative="1" as="geometry" />
        </mxCell>
        <mxCell id="rnfP3OfMHcst0KFM3fF8-26" value="" style="edgeStyle=orthogonalEdgeStyle;rounded=0;orthogonalLoop=1;jettySize=auto;html=1;" parent="1" source="rnfP3OfMHcst0KFM3fF8-19" target="rnfP3OfMHcst0KFM3fF8-25" edge="1">
          <mxGeometry relative="1" as="geometry" />
        </mxCell>
        <mxCell id="rnfP3OfMHcst0KFM3fF8-19" value="_netif_receive_skb_core" style="rounded=0;whiteSpace=wrap;html=1;" parent="1" vertex="1">
          <mxGeometry x="290" y="680" width="140" height="60" as="geometry" />
        </mxCell>
        <mxCell id="rnfP3OfMHcst0KFM3fF8-21" value="14.没有开启RPS时，直接调用_netif_receive_skb_core" style="text;strokeColor=none;align=center;fillColor=none;html=1;verticalAlign=middle;whiteSpace=wrap;rounded=0;" parent="1" vertex="1">
          <mxGeometry x="345" y="640" width="165" height="30" as="geometry" />
        </mxCell>
        <mxCell id="rnfP3OfMHcst0KFM3fF8-22" value="protocol lays" style="rounded=0;whiteSpace=wrap;html=1;" parent="1" vertex="1">
          <mxGeometry x="290" y="800" width="140" height="60" as="geometry" />
        </mxCell>
        <mxCell id="rnfP3OfMHcst0KFM3fF8-24" value="16.调用协议栈相关函数，将数据包交给协议栈处理" style="text;strokeColor=none;align=center;fillColor=none;html=1;verticalAlign=middle;whiteSpace=wrap;rounded=0;" parent="1" vertex="1">
          <mxGeometry x="370" y="760" width="170" height="30" as="geometry" />
        </mxCell>
        <mxCell id="rnfP3OfMHcst0KFM3fF8-25" value="AF_SOCKET" style="rounded=0;whiteSpace=wrap;html=1;" parent="1" vertex="1">
          <mxGeometry x="590" y="680" width="80" height="60" as="geometry" />
        </mxCell>
        <mxCell id="rnfP3OfMHcst0KFM3fF8-27" value="15.将数据包拷贝给AF_SOCKET套接字。可以用这个套接字实现抓包" style="text;strokeColor=none;align=center;fillColor=none;html=1;verticalAlign=middle;whiteSpace=wrap;rounded=0;" parent="1" vertex="1">
          <mxGeometry x="460" y="690" width="110" height="30" as="geometry" />
        </mxCell>
        <mxCell id="rnfP3OfMHcst0KFM3fF8-32" value="" style="edgeStyle=orthogonalEdgeStyle;rounded=0;orthogonalLoop=1;jettySize=auto;html=1;" parent="1" source="rnfP3OfMHcst0KFM3fF8-28" target="rnfP3OfMHcst0KFM3fF8-31" edge="1">
          <mxGeometry relative="1" as="geometry" />
        </mxCell>
        <mxCell id="rnfP3OfMHcst0KFM3fF8-28" value="enqueue_to_backlog" style="rounded=0;whiteSpace=wrap;html=1;" parent="1" vertex="1">
          <mxGeometry x="480" y="560" width="110" height="60" as="geometry" />
        </mxCell>
        <mxCell id="rnfP3OfMHcst0KFM3fF8-31" value="CPU input_pkt_queue" style="rounded=0;whiteSpace=wrap;html=1;" parent="1" vertex="1">
          <mxGeometry x="660" y="560" width="110" height="60" as="geometry" />
        </mxCell>
        <mxCell id="rnfP3OfMHcst0KFM3fF8-33" value="12.放入队列（用于异步？）" style="text;strokeColor=none;align=center;fillColor=none;html=1;verticalAlign=middle;whiteSpace=wrap;rounded=0;" parent="1" vertex="1">
          <mxGeometry x="600" y="570" width="60" height="30" as="geometry" />
        </mxCell>
        <mxCell id="rnfP3OfMHcst0KFM3fF8-34" value="11.调用函数" style="text;strokeColor=none;align=center;fillColor=none;html=1;verticalAlign=middle;whiteSpace=wrap;rounded=0;" parent="1" vertex="1">
          <mxGeometry x="420" y="570" width="60" height="30" as="geometry" />
        </mxCell>
        <mxCell id="rnfP3OfMHcst0KFM3fF8-35" value="" style="endArrow=classic;html=1;rounded=0;entryX=0.693;entryY=0;entryDx=0;entryDy=0;entryPerimeter=0;" parent="1" target="rnfP3OfMHcst0KFM3fF8-19" edge="1">
          <mxGeometry width="50" height="50" relative="1" as="geometry">
            <mxPoint x="714.5" y="620" as="sourcePoint" />
            <mxPoint x="714.5" y="720" as="targetPoint" />
          </mxGeometry>
        </mxCell>
        <mxCell id="rnfP3OfMHcst0KFM3fF8-36" value="13.CPU调用函数 获取input_pkt_queue队列数据" style="text;strokeColor=none;align=center;fillColor=none;html=1;verticalAlign=middle;whiteSpace=wrap;rounded=0;" parent="1" vertex="1">
          <mxGeometry x="540" y="640" width="170" height="30" as="geometry" />
        </mxCell>
      </root>
    </mxGraphModel>
  </diagram>
</mxfile>
